<svg viewBox="0 0 800 600" xmlns="http://www.w3.org/2000/svg">
  <defs>
    <linearGradient id="bowlGradient" cx="50%" cy="30%" r="70%">
      <stop offset="0%" style="stop-color:#ffffff"/>
      <stop offset="100%" style="stop-color:#f0f0f0"/>
    </linearGradient>
    <radialGradient id="soupGradient" cx="50%" cy="40%" r="60%">
      <stop offset="0%" style="stop-color:#fff8dc"/>
      <stop offset="100%" style="stop-color:#f5deb3"/>
    </radialGradient>
    <linearGradient id="steamGradient" x1="0%" y1="0%" x2="0%" y2="100%">
      <stop offset="0%" style="stop-color:#ffffff;stop-opacity:0.8"/>
      <stop offset="100%" style="stop-color:#ffffff;stop-opacity:0"/>
    </linearGradient>
  </defs>
  
  <!-- Background -->
  <rect width="800" height="600" fill="#fdf8f5"/>
  
  <!-- Wooden table surface -->
  <rect x="0" y="400" width="800" height="200" fill="#deb887" opacity="0.4"/>
  <rect x="0" y="420" width="800" height="4" fill="#cd853f" opacity="0.3"/>
  
  <!-- Large soup bowl -->
  <ellipse cx="400" cy="330" rx="180" ry="160" fill="url(#bowlGradient)" stroke="#d0d0d0" stroke-width="3"/>
  <ellipse cx="400" cy="320" rx="170" ry="150" fill="#ffffff" opacity="0.9"/>
  
  <!-- Creamy soup -->
  <ellipse cx="400" cy="325" rx="160" ry="140" fill="url(#soupGradient)"/>
  
  <!-- Cauliflower pieces floating in soup -->
  <ellipse cx="350" cy="300" rx="8" ry="7" fill="#ffffff" opacity="0.9"/>
  <ellipse cx="345" cy="297" rx="5" ry="4" fill="#f8f8ff"/>
  
  <ellipse cx="420" cy="310" rx="9" ry="8" fill="#ffffff" opacity="0.9"/>
  <ellipse cx="415" cy="307" rx="6" ry="5" fill="#f8f8ff"/>
  
  <ellipse cx="460" cy="320" rx="7" ry="6" fill="#ffffff" opacity="0.9"/>
  <ellipse cx="456" cy="318" rx="4" ry="3" fill="#f8f8ff"/>
  
  <ellipse cx="370" cy="340" rx="8" ry="7" fill="#ffffff" opacity="0.9"/>
  <ellipse cx="366" cy="337" rx="5" ry="4" fill="#f8f8ff"/>
  
  <ellipse cx="430" cy="350" rx="7" ry="6" fill="#ffffff" opacity="0.9"/>
  <ellipse cx="427" cy="348" rx="4" ry="3" fill="#f8f8ff"/>
  
  <!-- Chickpeas visible in soup -->
  <circle cx="380" cy="320" r="4" fill="#f4e4bc"/>
  <circle cx="378" cy="318" r="2.5" fill="#fff8dc"/>
  
  <circle cx="440" cy="330" r="4" fill="#f4e4bc"/>
  <circle cx="438" cy="328" r="2.5" fill="#fff8dc"/>
  
  <circle cx="360" cy="360" r="4" fill="#f4e4bc"/>
  <circle cx="358" cy="358" r="2.5" fill="#fff8dc"/>
  
  <circle cx="480" cy="340" r="4" fill="#f4e4bc"/>
  <circle cx="478" cy="338" r="2.5" fill="#fff8dc"/>
  
  <circle cx="400" cy="370" r="4" fill="#f4e4bc"/>
  <circle cx="398" cy="368" r="2.5" fill="#fff8dc"/>
  
  <!-- Curry spice coloring -->
  <ellipse cx="390" cy="310" rx="15" ry="12" fill="#daa520" opacity="0.3"/>
  <ellipse cx="430" cy="340" rx="12" ry="10" fill="#daa520" opacity="0.3"/>
  <ellipse cx="450" cy="300" rx="10" ry="8" fill="#daa520" opacity="0.3"/>
  
  <!-- Steam wisps -->
  <path d="M 320 250 Q 325 230 320 210 Q 315 190 320 170" stroke="url(#steamGradient)" stroke-width="3" fill="none" opacity="0.6"/>
  <path d="M 360 240 Q 365 220 360 200 Q 355 180 360 160" stroke="url(#steamGradient)" stroke-width="2" fill="none" opacity="0.5"/>
  <path d="M 400 245 Q 405 225 400 205 Q 395 185 400 165" stroke="url(#steamGradient)" stroke-width="4" fill="none" opacity="0.7"/>
  <path d="M 440 240 Q 445 220 440 200 Q 435 180 440 160" stroke="url(#steamGradient)" stroke-width="2" fill="none" opacity="0.5"/>
  <path d="M 480 250 Q 485 230 480 210 Q 475 190 480 170" stroke="url(#steamGradient)" stroke-width="3" fill="none" opacity="0.6"/>
  
  <!-- Baby spoon -->
  <ellipse cx="250" cy="400" rx="15" ry="10" fill="#ffb3ba" stroke="#ff9999" stroke-width="2"/>
  <rect x="230" y="397" width="70" height="6" fill="#ff9999" rx="3"/>
  <circle cx="235" cy="400" r="3" fill="#ff6b6b"/>
  
  <!-- Small bowl handles -->
  <ellipse cx="220" cy="330" rx="8" ry="25" fill="none" stroke="#d0d0d0" stroke-width="3"/>
  <ellipse cx="580" cy="330" rx="8" ry="25" fill="none" stroke="#d0d0d0" stroke-width="3"/>
  
  <!-- Herb garnish on top -->
  <path d="M 395 290 Q 400 285 405 290 Q 400 295 395 290" fill="#228b22" opacity="0.8"/>
  <path d="M 385 300 Q 390 295 395 300 Q 390 305 385 300" fill="#228b22" opacity="0.8"/>
  <path d="M 415 295 Q 420 290 425 295 Q 420 300 415 295" fill="#228b22" opacity="0.8"/>
  
  <!-- Creamy texture swirls -->
  <path d="M 340 320 Q 350 310 360 320 Q 350 330 340 320" stroke="#f5deb3" stroke-width="2" fill="none" opacity="0.6"/>
  <path d="M 440 340 Q 450 330 460 340 Q 450 350 440 340" stroke="#f5deb3" stroke-width="2" fill="none" opacity="0.6"/>
  <path d="M 380 350 Q 390 340 400 350 Q 390 360 380 350" stroke="#f5deb3" stroke-width="2" fill="none" opacity="0.6"/>
</svg>