<svg viewBox="0 0 800 600" xmlns="http://www.w3.org/2000/svg">
  <defs>
    <linearGradient id="muffinGradient" cx="50%" cy="30%" r="70%">
      <stop offset="0%" style="stop-color:#daa520"/>
      <stop offset="100%" style="stop-color:#b8860b"/>
    </linearGradient>
    <radialGradient id="blueberryGradient" cx="40%" cy="30%" r="60%">
      <stop offset="0%" style="stop-color:#4169e1"/>
      <stop offset="100%" style="stop-color:#191970"/>
    </radialGradient>
    <linearGradient id="steamGradient" x1="0%" y1="0%" x2="0%" y2="100%">
      <stop offset="0%" style="stop-color:#ffffff;stop-opacity:0.6"/>
      <stop offset="100%" style="stop-color:#ffffff;stop-opacity:0"/>
    </linearGradient>
  </defs>
  
  <!-- Background -->
  <rect width="800" height="600" fill="#fdf9f3"/>
  
  <!-- Wooden cooling rack -->
  <rect x="150" y="200" width="500" height="300" fill="#deb887" opacity="0.3"/>
  
  <!-- Cooling rack wires -->
  <rect x="160" y="220" width="480" height="2" fill="#c0c0c0"/>
  <rect x="160" y="240" width="480" height="2" fill="#c0c0c0"/>
  <rect x="160" y="260" width="480" height="2" fill="#c0c0c0"/>
  <rect x="160" y="280" width="480" height="2" fill="#c0c0c0"/>
  <rect x="160" y="300" width="480" height="2" fill="#c0c0c0"/>
  <rect x="160" y="320" width="480" height="2" fill="#c0c0c0"/>
  <rect x="160" y="340" width="480" height="2" fill="#c0c0c0"/>
  <rect x="160" y="360" width="480" height="2" fill="#c0c0c0"/>
  <rect x="160" y="380" width="480" height="2" fill="#c0c0c0"/>
  <rect x="160" y="400" width="480" height="2" fill="#c0c0c0"/>
  <rect x="160" y="420" width="480" height="2" fill="#c0c0c0"/>
  <rect x="160" y="440" width="480" height="2" fill="#c0c0c0"/>
  <rect x="160" y="460" width="480" height="2" fill="#c0c0c0"/>
  <rect x="160" y="480" width="480" height="2" fill="#c0c0c0"/>
  
  <rect x="180" y="200" width="2" height="300" fill="#c0c0c0"/>
  <rect x="220" y="200" width="2" height="300" fill="#c0c0c0"/>
  <rect x="260" y="200" width="2" height="300" fill="#c0c0c0"/>
  <rect x="300" y="200" width="2" height="300" fill="#c0c0c0"/>
  <rect x="340" y="200" width="2" height="300" fill="#c0c0c0"/>
  <rect x="380" y="200" width="2" height="300" fill="#c0c0c0"/>
  <rect x="420" y="200" width="2" height="300" fill="#c0c0c0"/>
  <rect x="460" y="200" width="2" height="300" fill="#c0c0c0"/>
  <rect x="500" y="200" width="2" height="300" fill="#c0c0c0"/>
  <rect x="540" y="200" width="2" height="300" fill="#c0c0c0"/>
  <rect x="580" y="200" width="2" height="300" fill="#c0c0c0"/>
  <rect x="620" y="200" width="2" height="300" fill="#c0c0c0"/>
  
  <!-- 12 muffins arranged in a 4x3 grid -->
  
  <!-- Top row -->
  <!-- Muffin 1 -->
  <ellipse cx="230" cy="280" rx="30" ry="35" fill="url(#muffinGradient)"/>
  <ellipse cx="230" cy="270" rx="25" ry="25" fill="#f0e68c" opacity="0.7"/>
  <circle cx="225" cy="265" r="3" fill="url(#blueberryGradient)"/>
  <circle cx="235" cy="270" r="3" fill="url(#blueberryGradient)"/>
  <circle cx="240" cy="275" r="3" fill="url(#blueberryGradient)"/>
  
  <!-- Muffin 2 -->
  <ellipse cx="310" cy="275" rx="30" ry="35" fill="url(#muffinGradient)"/>
  <ellipse cx="310" cy="265" rx="25" ry="25" fill="#f0e68c" opacity="0.7"/>
  <circle cx="305" cy="260" r="3" fill="url(#blueberryGradient)"/>
  <circle cx="315" cy="265" r="3" fill="url(#blueberryGradient)"/>
  <circle cx="320" cy="270" r="3" fill="url(#blueberryGradient)"/>
  
  <!-- Muffin 3 -->
  <ellipse cx="390" cy="280" rx="30" ry="35" fill="url(#muffinGradient)"/>
  <ellipse cx="390" cy="270" rx="25" ry="25" fill="#f0e68c" opacity="0.7"/>
  <circle cx="385" cy="265" r="3" fill="url(#blueberryGradient)"/>
  <circle cx="395" cy="270" r="3" fill="url(#blueberryGradient)"/>
  <circle cx="400" cy="275" r="3" fill="url(#blueberryGradient)"/>
  
  <!-- Muffin 4 -->
  <ellipse cx="470" cy="275" rx="30" ry="35" fill="url(#muffinGradient)"/>
  <ellipse cx="470" cy="265" rx="25" ry="25" fill="#f0e68c" opacity="0.7"/>
  <circle cx="465" cy="260" r="3" fill="url(#blueberryGradient)"/>
  <circle cx="475" cy="265" r="3" fill="url(#blueberryGradient)"/>
  <circle cx="480" cy="270" r="3" fill="url(#blueberryGradient)"/>
  
  <!-- Middle row -->
  <!-- Muffin 5 -->
  <ellipse cx="230" cy="360" rx="30" ry="35" fill="url(#muffinGradient)"/>
  <ellipse cx="230" cy="350" rx="25" ry="25" fill="#f0e68c" opacity="0.7"/>
  <circle cx="225" cy="345" r="3" fill="url(#blueberryGradient)"/>
  <circle cx="235" cy="350" r="3" fill="url(#blueberryGradient)"/>
  <circle cx="240" cy="355" r="3" fill="url(#blueberryGradient)"/>
  
  <!-- Muffin 6 -->
  <ellipse cx="310" cy="355" rx="30" ry="35" fill="url(#muffinGradient)"/>
  <ellipse cx="310" cy="345" rx="25" ry="25" fill="#f0e68c" opacity="0.7"/>
  <circle cx="305" cy="340" r="3" fill="url(#blueberryGradient)"/>
  <circle cx="315" cy="345" r="3" fill="url(#blueberryGradient)"/>
  <circle cx="320" cy="350" r="3" fill="url(#blueberryGradient)"/>
  
  <!-- Muffin 7 -->
  <ellipse cx="390" cy="360" rx="30" ry="35" fill="url(#muffinGradient)"/>
  <ellipse cx="390" cy="350" rx="25" ry="25" fill="#f0e68c" opacity="0.7"/>
  <circle cx="385" cy="345" r="3" fill="url(#blueberryGradient)"/>
  <circle cx="395" cy="350" r="3" fill="url(#blueberryGradient)"/>
  <circle cx="400" cy="355" r="3" fill="url(#blueberryGradient)"/>
  
  <!-- Muffin 8 -->
  <ellipse cx="470" cy="355" rx="30" ry="35" fill="url(#muffinGradient)"/>
  <ellipse cx="470" cy="345" rx="25" ry="25" fill="#f0e68c" opacity="0.7"/>
  <circle cx="465" cy="340" r="3" fill="url(#blueberryGradient)"/>
  <circle cx="475" cy="345" r="3" fill="url(#blueberryGradient)"/>
  <circle cx="480" cy="350" r="3" fill="url(#blueberryGradient)"/>
  
  <!-- Bottom row -->
  <!-- Muffin 9 -->
  <ellipse cx="230" cy="440" rx="30" ry="35" fill="url(#muffinGradient)"/>
  <ellipse cx="230" cy="430" rx="25" ry="25" fill="#f0e68c" opacity="0.7"/>
  <circle cx="225" cy="425" r="3" fill="url(#blueberryGradient)"/>
  <circle cx="235" cy="430" r="3" fill="url(#blueberryGradient)"/>
  <circle cx="240" cy="435" r="3" fill="url(#blueberryGradient)"/>
  
  <!-- Muffin 10 -->
  <ellipse cx="310" cy="435" rx="30" ry="35" fill="url(#muffinGradient)"/>
  <ellipse cx="310" cy="425" rx="25" ry="25" fill="#f0e68c" opacity="0.7"/>
  <circle cx="305" cy="420" r="3" fill="url(#blueberryGradient)"/>
  <circle cx="315" cy="425" r="3" fill="url(#blueberryGradient)"/>
  <circle cx="320" cy="430" r="3" fill="url(#blueberryGradient)"/>
  
  <!-- Muffin 11 -->
  <ellipse cx="390" cy="440" rx="30" ry="35" fill="url(#muffinGradient)"/>
  <ellipse cx="390" cy="430" rx="25" ry="25" fill="#f0e68c" opacity="0.7"/>
  <circle cx="385" cy="425" r="3" fill="url(#blueberryGradient)"/>
  <circle cx="395" cy="430" r="3" fill="url(#blueberryGradient)"/>
  <circle cx="400" cy="435" r="3" fill="url(#blueberryGradient)"/>
  
  <!-- Muffin 12 -->
  <ellipse cx="470" cy="435" rx="30" ry="35" fill="url(#muffinGradient)"/>
  <ellipse cx="470" cy="425" rx="25" ry="25" fill="#f0e68c" opacity="0.7"/>
  <circle cx="465" cy="420" r="3" fill="url(#blueberryGradient)"/>
  <circle cx="475" cy="425" r="3" fill="url(#blueberryGradient)"/>
  <circle cx="480" cy="430" r="3" fill="url(#blueberryGradient)"/>
  
  <!-- Steam from warm muffins -->
  <path d="M 230 230 Q 235 210 230 190 Q 225 170 230 150" stroke="url(#steamGradient)" stroke-width="2" fill="none" opacity="0.5"/>
  <path d="M 310 225 Q 315 205 310 185 Q 305 165 310 145" stroke="url(#steamGradient)" stroke-width="2" fill="none" opacity="0.4"/>
  <path d="M 390 230 Q 395 210 390 190 Q 385 170 390 150" stroke="url(#steamGradient)" stroke-width="2" fill="none" opacity="0.5"/>
  <path d="M 470 225 Q 475 205 470 185 Q 465 165 470 145" stroke="url(#steamGradient)" stroke-width="2" fill="none" opacity="0.4"/>
  
  <!-- Oat texture visible on muffin tops -->
  <ellipse cx="225" cy="270" rx="1.5" ry="1" fill="#daa520" opacity="0.8"/>
  <ellipse cx="235" cy="265" rx="1.5" ry="1" fill="#daa520" opacity="0.8"/>
  <ellipse cx="305" cy="265" rx="1.5" ry="1" fill="#daa520" opacity="0.8"/>
  <ellipse cx="315" cy="260" rx="1.5" ry="1" fill="#daa520" opacity="0.8"/>
  <ellipse cx="385" cy="270" rx="1.5" ry="1" fill="#daa520" opacity="0.8"/>
  <ellipse cx="395" cy="265" rx="1.5" ry="1" fill="#daa520" opacity="0.8"/>
  <ellipse cx="465" cy="265" rx="1.5" ry="1" fill="#daa520" opacity="0.8"/>
  <ellipse cx="475" cy="260" rx="1.5" ry="1" fill="#daa520" opacity="0.8"/>
  
  <!-- Paper liner edges -->
  <ellipse cx="230" cy="285" rx="32" ry="37" fill="none" stroke="#ffffff" stroke-width="1" opacity="0.8"/>
  <ellipse cx="310" cy="280" rx="32" ry="37" fill="none" stroke="#ffffff" stroke-width="1" opacity="0.8"/>
  <ellipse cx="390" cy="285" rx="32" ry="37" fill="none" stroke="#ffffff" stroke-width="1" opacity="0.8"/>
  <ellipse cx="470" cy="280" rx="32" ry="37" fill="none" stroke="#ffffff" stroke-width="1" opacity="0.8"/>
</svg>