<svg viewBox="0 0 800 600" xmlns="http://www.w3.org/2000/svg">
  <defs>
    <linearGradient id="plateGradient" cx="50%" cy="30%" r="70%">
      <stop offset="0%" style="stop-color:#ffffff"/>
      <stop offset="100%" style="stop-color:#f8f8f8"/>
    </linearGradient>
    <radialGradient id="meatballGradient" cx="40%" cy="30%" r="60%">
      <stop offset="0%" style="stop-color:#d2b48c"/>
      <stop offset="100%" style="stop-color:#a0522d"/>
    </radialGradient>
    <linearGradient id="steamGradient" x1="0%" y1="0%" x2="0%" y2="100%">
      <stop offset="0%" style="stop-color:#ffffff;stop-opacity:0.6"/>
      <stop offset="100%" style="stop-color:#ffffff;stop-opacity:0"/>
    </linearGradient>
  </defs>
  
  <!-- Background -->
  <rect width="800" height="600" fill="#fdf9f3"/>
  
  <!-- Wooden highchair tray -->
  <rect x="0" y="400" width="800" height="200" fill="#deb887" opacity="0.4"/>
  <rect x="0" y="420" width="800" height="4" fill="#cd853f" opacity="0.3"/>
  
  <!-- Baby plate -->
  <ellipse cx="400" cy="330" rx="180" ry="160" fill="url(#plateGradient)" stroke="#e0e0e0" stroke-width="3"/>
  <ellipse cx="400" cy="325" rx="170" ry="150" fill="#ffffff"/>
  
  <!-- Turkey rice meatballs arranged on plate -->
  <!-- Center cluster -->
  <circle cx="400" cy="320" r="20" fill="url(#meatballGradient)"/>
  <circle cx="398" cy="315" r="15" fill="#daa520" opacity="0.4"/>
  
  <!-- Surrounding meatballs -->
  <circle cx="350" cy="300" r="18" fill="url(#meatballGradient)"/>
  <circle cx="348" cy="296" r="13" fill="#daa520" opacity="0.4"/>
  
  <circle cx="450" cy="305" r="19" fill="url(#meatballGradient)"/>
  <circle cx="448" cy="301" r="14" fill="#daa520" opacity="0.4"/>
  
  <circle cx="380" cy="270" r="17" fill="url(#meatballGradient)"/>
  <circle cx="378" cy="267" r="12" fill="#daa520" opacity="0.4"/>
  
  <circle cx="420" cy="275" r="18" fill="url(#meatballGradient)"/>
  <circle cx="418" cy="272" r="13" fill="#daa520" opacity="0.4"/>
  
  <circle cx="330" cy="340" r="19" fill="url(#meatballGradient)"/>
  <circle cx="328" cy="336" r="14" fill="#daa520" opacity="0.4"/>
  
  <circle cx="470" cy="345" r="17" fill="url(#meatballGradient)"/>
  <circle cx="468" cy="342" r="12" fill="#daa520" opacity="0.4"/>
  
  <circle cx="360" cy="370" r="18" fill="url(#meatballGradient)"/>
  <circle cx="358" cy="366" r="13" fill="#daa520" opacity="0.4"/>
  
  <circle cx="440" cy="375" r="19" fill="url(#meatballGradient)"/>
  <circle cx="438" cy="371" r="14" fill="#daa520" opacity="0.4"/>
  
  <circle cx="400" cy="390" r="17" fill="url(#meatballGradient)"/>
  <circle cx="398" cy="387" r="12" fill="#daa520" opacity="0.4"/>
  
  <!-- Rice grains visible in meatballs -->
  <ellipse cx="395" cy="318" rx="2" ry="1" fill="#ffffff" opacity="0.8"/>
  <ellipse cx="405" cy="322" rx="2" ry="1" fill="#ffffff" opacity="0.8"/>
  <ellipse cx="345" cy="298" rx="2" ry="1" fill="#ffffff" opacity="0.8"/>
  <ellipse cx="355" cy="302" rx="2" ry="1" fill="#ffffff" opacity="0.8"/>
  <ellipse cx="445" cy="303" rx="2" ry="1" fill="#ffffff" opacity="0.8"/>
  <ellipse cx="455" cy="307" rx="2" ry="1" fill="#ffffff" opacity="0.8"/>
  <ellipse cx="375" cy="268" rx="2" ry="1" fill="#ffffff" opacity="0.8"/>
  <ellipse cx="385" cy="272" rx="2" ry="1" fill="#ffffff" opacity="0.8"/>
  
  <!-- Tiny vegetable pieces visible -->
  <circle cx="402" cy="315" r="1" fill="#228b22" opacity="0.7"/>
  <circle cx="352" cy="295" r="1" fill="#ff6347" opacity="0.7"/>
  <circle cx="422" cy="270" r="1" fill="#228b22" opacity="0.7"/>
  <circle cx="332" cy="335" r="1" fill="#ff6347" opacity="0.7"/>
  <circle cx="472" cy="340" r="1" fill="#228b22" opacity="0.7"/>
  <circle cx="362" cy="365" r="1" fill="#ff6347" opacity="0.7"/>
  
  <!-- Steam from warm meatballs -->
  <path d="M 350 260 Q 355 240 350 220 Q 345 200 350 180" stroke="url(#steamGradient)" stroke-width="2" fill="none" opacity="0.5"/>
  <path d="M 400 270 Q 405 250 400 230 Q 395 210 400 190" stroke="url(#steamGradient)" stroke-width="3" fill="none" opacity="0.6"/>
  <path d="M 450 265 Q 455 245 450 225 Q 445 205 450 185" stroke="url(#steamGradient)" stroke-width="2" fill="none" opacity="0.4"/>
  
  <!-- Baby spoon -->
  <ellipse cx="280" cy="380" rx="15" ry="10" fill="#ffb3ba" stroke="#ff9999" stroke-width="2"/>
  <rect x="260" y="377" width="70" height="6" fill="#ff9999" rx="3"/>
  <circle cx="265" cy="380" r="3" fill="#ff6b6b"/>
  
  <!-- Sesame oil glaze -->
  <ellipse cx="400" cy="320" rx="18" ry="18" fill="none" stroke="#daa520" stroke-width="1" opacity="0.6"/>
  <ellipse cx="350" cy="300" rx="16" ry="16" fill="none" stroke="#daa520" stroke-width="1" opacity="0.6"/>
  <ellipse cx="450" cy="305" rx="17" ry="17" fill="none" stroke="#daa520" stroke-width="1" opacity="0.6"/>
  
  <!-- Small crumbs around plate -->
  <circle cx="520" cy="320" r="2" fill="#a0522d" opacity="0.7"/>
  <circle cx="290" cy="340" r="1.5" fill="#a0522d" opacity="0.7"/>
  <circle cx="510" cy="380" r="2" fill="#a0522d" opacity="0.7"/>
  <circle cx="280" cy="310" r="1.5" fill="#a0522d" opacity="0.7"/>
</svg>